{
  "accessors": [
    {
      "bufferView": 2,
      "componentType": 5126,
      "count": 16224,
      "max": [
        198.61129760742188,
        198.61126708984375,
        199.82228088378906
      ],
      "min": [
        -198.61141967773438,
        -198.61134338378906,
        -199.82228088378906
      ],
      "type": "VEC3"
    },
    {
      "bufferView": 2,
      "byteOffset": 194688,
      "componentType": 5126,
      "count": 16224,
      "max": [
        1.0,
        1.0,
        1.0
      ],
      "min": [
        -1.0,
        -1.0,
        -1.0
      ],
      "type": "VEC3"
    },
    {
      "bufferView": 1,
      "componentType": 5126,
      "count": 16224,
      "max": [
        1.000000238418579,
        1.0000001192092896
      ],
      "min": [
        0.0,
        0.0
      ],
      "type": "VEC2"
    },
    {
      "bufferView": 1,
      "byteOffset": 129792,
      "componentType": 5126,
      "count": 16224,
      "max": [
        1.000000238418579,
        1.0000001192092896
      ],
      "min": [
        0.0,
        0.0
      ],
      "type": "VEC2"
    },
    {
      "bufferView": 0,
      "componentType": 5125,
      "count": 90240,
      "type": "SCALAR"
    },
    {
      "bufferView": 2,
      "byteOffset": 389376,
      "componentType": 5126,
      "count": 16224,
      "max": [
        198.61129760742188,
        198.61126708984375,
        199.82228088378906
      ],
      "min": [
        -198.61141967773438,
        -198.61134338378906,
        -199.82228088378906
      ],
      "type": "VEC3"
    },
    {
      "bufferView": 2,
      "byteOffset": 584064,
      "componentType": 5126,
      "count": 16224,
      "max": [
        1.0,
        1.0,
        1.0
      ],
      "min": [
        -1.0,
        -1.0,
        -1.0
      ],
      "type": "VEC3"
    },
    {
      "bufferView": 1,
      "byteOffset": 259584,
      "componentType": 5126,
      "count": 16224,
      "max": [
        1.000000238418579,
        1.0000001192092896
      ],
      "min": [
        0.0,
        0.0
      ],
      "type": "VEC2"
    },
    {
      "bufferView": 0,
      "byteOffset": 360960,
      "componentType": 5125,
      "count": 90240,
      "type": "SCALAR"
    }
  ],
  "asset": {
    "extras": {
      "author": "imperioame (https://sketchfab.com/imperioame)",
      "license": "CC-BY-4.0 (http://creativecommons.org/licenses/by/4.0/)",
      "source": "https://sketchfab.com/3d-models/sun-star-with-procedural-textures-7fc327e768574566b90fbb7b7602d289",
      "title": "Sun / Star with procedural textures"
    },
    "generator": "Sketchfab-13.90.0",
    "version": "2.0"
  },
  "bufferViews": [
    {
      "buffer": 0,
      "byteLength": 721920,
      "name": "floatBufferViews",
      "target": 34963
    },
    {
      "buffer": 0,
      "byteLength": 389376,
      "byteOffset": 721920,
      "byteStride": 8,
      "name": "floatBufferViews",
      "target": 34962
    },
    {
      "buffer": 0,
      "byteLength": 778752,
      "byteOffset": 1111296,
      "byteStride": 12,
      "name": "floatBufferViews",
      "target": 34962
    }
  ],
  "buffers": [
    {
      "byteLength": 1890048,
      "uri": "scene.bin"
    }
  ],
  "images": [
    {
      "uri": "textures/09.Sun_baseColor.png"
    },
    {
      "uri": "textures/09.Sun_emissive.png"
    },
    {
      "uri": "textures/09.Nubes-atmosfera_-_Sun_baseColor.png"
    },
    {
      "uri": "textures/09.Nubes-atmosfera_-_Sun_emissive.png"
    }
  ],
  "materials": [
    {
      "doubleSided": true,
      "emissiveFactor": [
        1.0,
        1.0,
        1.0
      ],
      "emissiveTexture": {
        "index": 1
      },
      "name": "09.Sun",
      "pbrMetallicRoughness": {
        "baseColorTexture": {
          "index": 0
        },
        "metallicFactor": 0.0,
        "roughnessFactor": 0.8211145618000169
      }
    },
    {
      "alphaMode": "BLEND",
      "doubleSided": true,
      "emissiveFactor": [
        1.0,
        1.0,
        1.0
      ],
      "emissiveTexture": {
        "index": 3
      },
      "name": "09.Nubes-atmosfera_-_Sun",
      "pbrMetallicRoughness": {
        "baseColorTexture": {
          "index": 2
        },
        "metallicFactor": 0.0,
        "roughnessFactor": 0.8211145618000169
      }
    }
  ],
  "meshes": [
    {
      "name": "Planeta.009_09.Sun_0",
      "primitives": [
        {
          "attributes": {
            "NORMAL": 1,
            "POSITION": 0,
            "TEXCOORD_0": 2,
            "TEXCOORD_1": 3
          },
          "indices": 4,
          "material": 0,
          "mode": 4
        }
      ]
    },
    {
      "name": "Nubes.001_09.Nubes-atmosfera - Sun_0",
      "primitives": [
        {
          "attributes": {
            "NORMAL": 6,
            "POSITION": 5,
            "TEXCOORD_0": 7
          },
          "indices": 8,
          "material": 1,
          "mode": 4
        }
      ]
    }
  ],
  "nodes": [
    {
      "children": [
        1
      ],
      "matrix": [
        1.0,
        0.0,
        0.0,
        0.0,
        0.0,
        2.220446049250313e-16,
        -1.0,
        0.0,
        0.0,
        1.0,
        2.220446049250313e-16,
        0.0,
        0.0,
        0.0,
        0.0,
        1.0
      ],
      "name": "Sketchfab_model"
    },
    {
      "children": [
        2
      ],
      "matrix": [
        0.009999999776482582,
        0.0,
        0.0,
        0.0,
        0.0,
        0.0,
        0.009999999776482582,
        0.0,
        0.0,
        -0.009999999776482582,
        0.0,
        0.0,
        0.0,
        0.0,
        0.0,
        1.0
      ],
      "name": "9 - WorldSighting Blender - Sun.fbx"
    },
    {
      "children": [
        3
      ],
      "name": "RootNode"
    },
    {
      "children": [
        4,
        5
      ],
      "matrix": [
        4.626299659516804,
        -1.0867033403698048,
        -0.5425160058618742,
        0.0,
        -0.9950327781127711,
        -2.165745294055146,
        -4.146969182184947,
        0.0,
        0.6965324402605819,
        4.1238957414923005,
        -2.320822745858527,
        0.0,
        0.0,
        0.0,
        0.0,
        1.0
      ],
      "name": "Planeta.009"
    },
    {
      "mesh": 0,
      "name": "Planeta.009_09.Sun_0"
    },
    {
      "children": [
        6
      ],
      "matrix": [
        0.9095403345044202,
        -0.37979476856464395,
        -0.23446098299320414,
        0.0,
        0.37979481361771134,
        0.9381315584178309,
        -0.04631370283006326,
        0.0,
        0.23446103757480813,
        -0.04631371127905376,
        0.9845624327495605,
        0.0,
        0.0,
        0.0,
        0.0,
        1.0
      ],
      "name": "Nubes.001"
    },
    {
      "mesh": 1,
      "name": "Nubes.001_09.Nubes-atmosfera - Sun_0"
    }
  ],
  "samplers": [
    {
      "magFilter": 9729,
      "minFilter": 9987,
      "wrapS": 10497,
      "wrapT": 10497
    }
  ],
  "scene": 0,
  "scenes": [
    {
      "name": "Sketchfab_Scene",
      "nodes": [
        0
      ]
    }
  ],
  "textures": [
    {
      "sampler": 0,
      "source": 0
    },
    {
      "sampler": 0,
      "source": 1
    },
    {
      "sampler": 0,
      "source": 2
    },
    {
      "sampler": 0,
      "source": 3
    }
  ]
}
