{
  "accessors": [
    {
      "bufferView": 2,
      "componentType": 5126,
      "count": 24,
      "max": [
        0.5000002384185791,
        0.5,
        0.5000002980232239
      ],
      "min": [
        -0.5000001788139343,
        -0.5,
        -0.5000001788139343
      ],
      "type": "VEC3"
    },
    {
      "bufferView": 2,
      "byteOffset": 288,
      "componentType": 5126,
      "count": 24,
      "max": [
        1.0,
        1.0,
        1.0
      ],
      "min": [
        -1.0,
        -1.0,
        -1.0
      ],
      "type": "VEC3"
    },
    {
      "bufferView": 1,
      "componentType": 5126,
      "count": 24,
      "max": [
        0.0,
        0.0
      ],
      "min": [
        0.0,
        0.0
      ],
      "type": "VEC2"
    },
    {
      "bufferView": 0,
      "componentType": 5125,
      "count": 36,
      "type": "SCALAR"
    },
    {
      "bufferView": 2,
      "byteOffset": 576,
      "componentType": 5126,
      "count": 15391,
      "max": [
        1.22190523147583,
        7.721958160400391,
        12.700529098510742
      ],
      "min": [
        -0.99772709608078,
        -2.4542288780212402,
        -4.2085371017456055
      ],
      "type": "VEC3"
    },
    {
      "bufferView": 2,
      "byteOffset": 185268,
      "componentType": 5126,
      "count": 15391,
      "max": [
        1.0,
        1.0,
        1.0
      ],
      "min": [
        -1.0,
        -1.0,
        -1.0
      ],
      "type": "VEC3"
    },
    {
      "bufferView": 1,
      "byteOffset": 192,
      "componentType": 5126,
      "count": 15391,
      "max": [
        0.9825130701065063,
        0.9909648895263672
      ],
      "min": [
        0.0058732591569423676,
        -0.12563002109527588
      ],
      "type": "VEC2"
    },
    {
      "bufferView": 0,
      "byteOffset": 144,
      "componentType": 5125,
      "count": 52704,
      "type": "SCALAR"
    },
    {
      "bufferView": 2,
      "byteOffset": 369960,
      "componentType": 5126,
      "count": 24,
      "max": [
        3.8759188652038574,
        -1.073880910873413,
        2.747720956802368
      ],
      "min": [
        -3.8763067722320557,
        -3.3154120445251465,
        1.0764590501785278
      ],
      "type": "VEC3"
    },
    {
      "bufferView": 2,
      "byteOffset": 370248,
      "componentType": 5126,
      "count": 24,
      "max": [
        0.8956391215324402,
        0.8325254917144775,
        0.8812049627304077
      ],
      "min": [
        -0.8956387639045715,
        -0.936037540435791,
        -0.8765146136283875
      ],
      "type": "VEC3"
    },
    {
      "bufferView": 1,
      "byteOffset": 123320,
      "componentType": 5126,
      "count": 24,
      "max": [
        0.42019325494766235,
        0.750571608543396
      ],
      "min": [
        0.4057489037513733,
        0.7257868051528931
      ],
      "type": "VEC2"
    },
    {
      "bufferView": 0,
      "byteOffset": 210960,
      "componentType": 5125,
      "count": 96,
      "type": "SCALAR"
    },
    {
      "bufferView": 2,
      "byteOffset": 370536,
      "componentType": 5126,
      "count": 1544,
      "max": [
        1.9060672521591187,
        1.0294886827468872,
        1.9060697555541992
      ],
      "min": [
        -1.9060672521591187,
        -0.5773927569389343,
        -1.9060697555541992
      ],
      "type": "VEC3"
    },
    {
      "bufferView": 2,
      "byteOffset": 389064,
      "componentType": 5126,
      "count": 1544,
      "max": [
        0.9999127388000488,
        1.0,
        0.9999127388000488
      ],
      "min": [
        -0.9999127388000488,
        -1.0,
        -0.9999127388000488
      ],
      "type": "VEC3"
    },
    {
      "bufferView": 1,
      "byteOffset": 123512,
      "componentType": 5126,
      "count": 1544,
      "max": [
        0.9903334379196167,
        0.9903334379196167
      ],
      "min": [
        0.009666532278060913,
        0.06106454133987427
      ],
      "type": "VEC2"
    },
    {
      "bufferView": 0,
      "byteOffset": 211344,
      "componentType": 5125,
      "count": 6960,
      "type": "SCALAR"
    },
    {
      "bufferView": 2,
      "byteOffset": 407592,
      "componentType": 5126,
      "count": 433,
      "max": [
        0.9216865301132202,
        -0.27484238147735596,
        0.9216890335083008
      ],
      "min": [
        -0.921686589717865,
        -0.6775355339050293,
        -0.9216888546943665
      ],
      "type": "VEC3"
    },
    {
      "bufferView": 2,
      "byteOffset": 412788,
      "componentType": 5126,
      "count": 433,
      "max": [
        1.0,
        0.10040869563817978,
        1.0
      ],
      "min": [
        -1.0,
        -1.0,
        -1.0
      ],
      "type": "VEC3"
    },
    {
      "bufferView": 1,
      "byteOffset": 135864,
      "componentType": 5126,
      "count": 433,
      "max": [
        0.7735148072242737,
        0.4426966905593872
      ],
      "min": [
        0.0,
        0.17092007398605347
      ],
      "type": "VEC2"
    },
    {
      "bufferView": 0,
      "byteOffset": 239184,
      "componentType": 5125,
      "count": 1368,
      "type": "SCALAR"
    }
  ],
  "asset": {
    "extras": {
      "author": "Sidharth1 (https://sketchfab.com/Sidharth1)",
      "license": "CC-BY-4.0 (http://creativecommons.org/licenses/by/4.0/)",
      "source": "https://sketchfab.com/3d-models/voyager-1-f626e0b2d37b46dab4c9433306720c4b",
      "title": "Voyager 1"
    },
    "generator": "Sketchfab-12.67.0",
    "version": "2.0"
  },
  "bufferViews": [
    {
      "buffer": 0,
      "byteLength": 244656,
      "name": "floatBufferViews",
      "target": 34963
    },
    {
      "buffer": 0,
      "byteLength": 139328,
      "byteOffset": 244656,
      "byteStride": 8,
      "name": "floatBufferViews",
      "target": 34962
    },
    {
      "buffer": 0,
      "byteLength": 417984,
      "byteOffset": 383984,
      "byteStride": 12,
      "name": "floatBufferViews",
      "target": 34962
    }
  ],
  "buffers": [
    {
      "byteLength": 801968,
      "uri": "scene.bin"
    }
  ],
  "images": [
    {
      "uri": "textures/material_0_baseColor.png"
    },
    {
      "uri": "textures/material_1_baseColor.png"
    },
    {
      "uri": "textures/material_3_baseColor.png"
    },
    {
      "uri": "textures/material_4_baseColor.png"
    }
  ],
  "materials": [
    {
      "alphaMode": "BLEND",
      "name": "material_0",
      "pbrMetallicRoughness": {
        "baseColorTexture": {
          "index": 0
        },
        "metallicFactor": 0.0,
        "roughnessFactor": 0.501961
      }
    },
    {
      "name": "material_1",
      "pbrMetallicRoughness": {
        "baseColorTexture": {
          "index": 1
        },
        "metallicFactor": 0.0,
        "roughnessFactor": 0.501961
      }
    },
    {
      "name": "material_2",
      "pbrMetallicRoughness": {
        "baseColorFactor": [
          1.0,
          0.827451,
          0.317647,
          1.0
        ],
        "roughnessFactor": 0.34902
      }
    },
    {
      "name": "material_3",
      "pbrMetallicRoughness": {
        "baseColorTexture": {
          "index": 2
        },
        "metallicFactor": 0.0,
        "roughnessFactor": 0.501961
      }
    },
    {
      "name": "material_4",
      "pbrMetallicRoughness": {
        "baseColorTexture": {
          "index": 3
        },
        "metallicFactor": 0.0,
        "roughnessFactor": 0.501961
      }
    }
  ],
  "meshes": [
    {
      "name": "Object_0",
      "primitives": [
        {
          "attributes": {
            "NORMAL": 1,
            "POSITION": 0,
            "TEXCOORD_0": 2
          },
          "indices": 3,
          "material": 0,
          "mode": 4
        }
      ]
    },
    {
      "name": "Object_1",
      "primitives": [
        {
          "attributes": {
            "NORMAL": 5,
            "POSITION": 4,
            "TEXCOORD_0": 6
          },
          "indices": 7,
          "material": 1,
          "mode": 4
        }
      ]
    },
    {
      "name": "Object_2",
      "primitives": [
        {
          "attributes": {
            "NORMAL": 9,
            "POSITION": 8,
            "TEXCOORD_0": 10
          },
          "indices": 11,
          "material": 2,
          "mode": 4
        }
      ]
    },
    {
      "name": "Object_3",
      "primitives": [
        {
          "attributes": {
            "NORMAL": 13,
            "POSITION": 12,
            "TEXCOORD_0": 14
          },
          "indices": 15,
          "material": 3,
          "mode": 4
        }
      ]
    },
    {
      "name": "Object_4",
      "primitives": [
        {
          "attributes": {
            "NORMAL": 17,
            "POSITION": 16,
            "TEXCOORD_0": 18
          },
          "indices": 19,
          "material": 4,
          "mode": 4
        }
      ]
    }
  ],
  "nodes": [
    {
      "children": [
        1
      ],
      "matrix": [
        1.0,
        0.0,
        0.0,
        0.0,
        0.0,
        2.220446049250313e-16,
        -1.0,
        0.0,
        0.0,
        1.0,
        2.220446049250313e-16,
        0.0,
        0.0,
        0.0,
        0.0,
        1.0
      ],
      "name": "Sketchfab_model"
    },
    {
      "children": [
        2
      ],
      "name": "root"
    },
    {
      "children": [
        3
      ],
      "matrix": [
        1.0,
        0.0,
        0.0,
        0.0,
        0.0,
        2.220446049250313e-16,
        1.0,
        0.0,
        0.0,
        -1.0,
        2.220446049250313e-16,
        0.0,
        0.0,
        0.0,
        0.0,
        1.0
      ],
      "name": "GLTF_SceneRootNode"
    },
    {
      "children": [
        4,
        5,
        8,
        10
      ],
      "name": "_root_0"
    },
    {
      "mesh": 0,
      "name": "Object_4"
    },
    {
      "children": [
        6,
        7
      ],
      "matrix": [
        1.0,
        0.0,
        0.0,
        0.0,
        0.0,
        1.0,
        0.0,
        0.0,
        0.0,
        0.0,
        1.0,
        0.0,
        -0.0027135894633829594,
        1.2817107439041138,
        0.0,
        1.0
      ],
      "name": "tex_01_1"
    },
    {
      "mesh": 1,
      "name": "Object_6"
    },
    {
      "mesh": 2,
      "name": "Object_7"
    },
    {
      "children": [
        9
      ],
      "matrix": [
        1.0,
        0.0,
        0.0,
        0.0,
        0.0,
        1.0,
        0.0,
        0.0,
        0.0,
        0.0,
        1.0,
        0.0,
        -0.0027135894633829594,
        1.2817107439041138,
        0.0,
        1.0
      ],
      "name": "tex_02_AO_2"
    },
    {
      "mesh": 3,
      "name": "Object_9"
    },
    {
      "children": [
        11
      ],
      "matrix": [
        1.0,
        0.0,
        0.0,
        0.0,
        0.0,
        1.0,
        0.0,
        0.0,
        0.0,
        0.0,
        1.0,
        0.0,
        -0.0027135894633829594,
        1.2817107439041138,
        0.0,
        1.0
      ],
      "name": "tex_02_AO_dark_3"
    },
    {
      "mesh": 4,
      "name": "Object_11"
    }
  ],
  "samplers": [
    {
      "magFilter": 9729,
      "minFilter": 9987,
      "wrapS": 10497,
      "wrapT": 10497
    }
  ],
  "scene": 0,
  "scenes": [
    {
      "name": "Sketchfab_Scene",
      "nodes": [
        0
      ]
    }
  ],
  "textures": [
    {
      "sampler": 0,
      "source": 0
    },
    {
      "sampler": 0,
      "source": 1
    },
    {
      "sampler": 0,
      "source": 2
    },
    {
      "sampler": 0,
      "source": 3
    }
  ]
}
